<svg id="visual" viewBox="0 0 960 300" width="960" height="300" xmlns="http://www.w3.org/2000/svg" xmlns:xlink="http://www.w3.org/1999/xlink" version="1.1"><rect x="0" y="0" width="960" height="300" fill="#040d21"></rect><path d="M0 189L17.8 188C35.7 187 71.3 185 106.8 187.2C142.3 189.3 177.7 195.7 213.2 191C248.7 186.3 284.3 170.7 320 164.5C355.7 158.3 391.3 161.7 426.8 165.5C462.3 169.3 497.7 173.7 533.2 178.5C568.7 183.3 604.3 188.7 640 184.2C675.7 179.7 711.3 165.3 746.8 163.7C782.3 162 817.7 173 853.2 176.8C888.7 180.7 924.3 177.3 942.2 175.7L960 174L960 301L942.2 301C924.3 301 888.7 301 853.2 301C817.7 301 782.3 301 746.8 301C711.3 301 675.7 301 640 301C604.3 301 568.7 301 533.2 301C497.7 301 462.3 301 426.8 301C391.3 301 355.7 301 320 301C284.3 301 248.7 301 213.2 301C177.7 301 142.3 301 106.8 301C71.3 301 35.7 301 17.8 301L0 301Z" fill="#071636"></path><path d="M0 178L17.8 179.3C35.7 180.7 71.3 183.3 106.8 191.5C142.3 199.7 177.7 213.3 213.2 214.7C248.7 216 284.3 205 320 203.3C355.7 201.7 391.3 209.3 426.8 207C462.3 204.7 497.7 192.3 533.2 193.2C568.7 194 604.3 208 640 215C675.7 222 711.3 222 746.8 216C782.3 210 817.7 198 853.2 198.2C888.7 198.3 924.3 210.7 942.2 216.8L960 223L960 301L942.2 301C924.3 301 888.7 301 853.2 301C817.7 301 782.3 301 746.8 301C711.3 301 675.7 301 640 301C604.3 301 568.7 301 533.2 301C497.7 301 462.3 301 426.8 301C391.3 301 355.7 301 320 301C284.3 301 248.7 301 213.2 301C177.7 301 142.3 301 106.8 301C71.3 301 35.7 301 17.8 301L0 301Z" fill="#434764"></path><path d="M0 225L17.8 224C35.7 223 71.3 221 106.8 219.5C142.3 218 177.7 217 213.2 219.8C248.7 222.7 284.3 229.3 320 228.7C355.7 228 391.3 220 426.8 221.2C462.3 222.3 497.7 232.7 533.2 233.7C568.7 234.7 604.3 226.3 640 224.3C675.7 222.3 711.3 226.7 746.8 226.3C782.3 226 817.7 221 853.2 218.8C888.7 216.7 924.3 217.3 942.2 217.7L960 218L960 301L942.2 301C924.3 301 888.7 301 853.2 301C817.7 301 782.3 301 746.8 301C711.3 301 675.7 301 640 301C604.3 301 568.7 301 533.2 301C497.7 301 462.3 301 426.8 301C391.3 301 355.7 301 320 301C284.3 301 248.7 301 213.2 301C177.7 301 142.3 301 106.8 301C71.3 301 35.7 301 17.8 301L0 301Z" fill="#7e8095"></path><path d="M0 254L17.8 255.5C35.7 257 71.3 260 106.8 259C142.3 258 177.7 253 213.2 251.5C248.7 250 284.3 252 320 253C355.7 254 391.3 254 426.8 250C462.3 246 497.7 238 533.2 238.8C568.7 239.7 604.3 249.3 640 249.5C675.7 249.7 711.3 240.3 746.8 237.2C782.3 234 817.7 237 853.2 239.2C888.7 241.3 924.3 242.7 942.2 243.3L960 244L960 301L942.2 301C924.3 301 888.7 301 853.2 301C817.7 301 782.3 301 746.8 301C711.3 301 675.7 301 640 301C604.3 301 568.7 301 533.2 301C497.7 301 462.3 301 426.8 301C391.3 301 355.7 301 320 301C284.3 301 248.7 301 213.2 301C177.7 301 142.3 301 106.8 301C71.3 301 35.7 301 17.8 301L0 301Z" fill="#bdbdc9"></path><path d="M0 269L17.8 269.5C35.7 270 71.3 271 106.8 270.3C142.3 269.7 177.7 267.3 213.2 268.3C248.7 269.3 284.3 273.7 320 273.3C355.7 273 391.3 268 426.8 266.2C462.3 264.3 497.7 265.7 533.2 268.7C568.7 271.7 604.3 276.3 640 277.8C675.7 279.3 711.3 277.7 746.8 277.3C782.3 277 817.7 278 853.2 278.5C888.7 279 924.3 279 942.2 279L960 279L960 301L942.2 301C924.3 301 888.7 301 853.2 301C817.7 301 782.3 301 746.8 301C711.3 301 675.7 301 640 301C604.3 301 568.7 301 533.2 301C497.7 301 462.3 301 426.8 301C391.3 301 355.7 301 320 301C284.3 301 248.7 301 213.2 301C177.7 301 142.3 301 106.8 301C71.3 301 35.7 301 17.8 301L0 301Z" fill="#ffffff"></path></svg>