<svg id="visual" viewBox="0 0 960 300" width="960" height="300" xmlns="http://www.w3.org/2000/svg" xmlns:xlink="http://www.w3.org/1999/xlink" version="1.1"><rect x="0" y="0" width="960" height="300" fill="#ffffff"></rect><path d="M0 145L22.8 157.8C45.7 170.7 91.3 196.3 137 198.5C182.7 200.7 228.3 179.3 274 174.7C319.7 170 365.3 182 411.2 192C457 202 503 210 548.8 203.7C594.7 197.3 640.3 176.7 686 171.2C731.7 165.7 777.3 175.3 823 181.3C868.7 187.3 914.3 189.7 937.2 190.8L960 192L960 301L937.2 301C914.3 301 868.7 301 823 301C777.3 301 731.7 301 686 301C640.3 301 594.7 301 548.8 301C503 301 457 301 411.2 301C365.3 301 319.7 301 274 301C228.3 301 182.7 301 137 301C91.3 301 45.7 301 22.8 301L0 301Z" fill="#040d21" stroke-linecap="round" stroke-linejoin="miter"></path></svg>